<svg id="Layer_1" data-name="Layer 1" xmlns="http://www.w3.org/2000/svg" xmlns:xlink="http://www.w3.org/1999/xlink" viewBox="0 0 98 91.11"><defs><linearGradient id="linear-gradient" x1="525.25" y1="-335.68" x2="538.13" y2="-335.68" gradientTransform="translate(223.77 635.95) rotate(-74.73)" gradientUnits="userSpaceOnUse"><stop offset="0" stop-color="#84c341"/><stop offset="1" stop-color="#00a551"/></linearGradient><linearGradient id="linear-gradient-2" x1="378.14" y1="-277.84" x2="390.88" y2="-277.84" gradientTransform="matrix(0.43, -0.85, 1.13, 0.58, 184.24, 542.61)" xlink:href="#linear-gradient"/><linearGradient id="linear-gradient-3" x1="704.11" y1="303.38" x2="712.22" y2="303.38" gradientTransform="matrix(-0.34, -1.01, -1.67, 0.48, 806.59, 613.71)" xlink:href="#linear-gradient"/><linearGradient id="linear-gradient-4" x1="971.32" y1="226.05" x2="985.11" y2="226.05" gradientTransform="matrix(-0.5, -0.54, -0.8, 0.7, 732.48, 431.24)" xlink:href="#linear-gradient"/><linearGradient id="linear-gradient-5" x1="52.14" y1="76.59" x2="63.01" y2="76.59" gradientTransform="matrix(1, 0, 0, 1, 0, 0)" xlink:href="#linear-gradient"/><linearGradient id="linear-gradient-6" x1="44.88" y1="70.6" x2="53.43" y2="70.6" gradientTransform="matrix(1, 0, 0, 1, 0, 0)" xlink:href="#linear-gradient"/><linearGradient id="linear-gradient-7" x1="46.4" y1="55.32" x2="116.95" y2="55.32" gradientTransform="matrix(1, 0, 0, 1, 0, 0)" xlink:href="#linear-gradient"/><linearGradient id="linear-gradient-8" x1="125.94" y1="-10.81" x2="144.44" y2="-10.81" gradientTransform="matrix(1.18, -0.13, 0.12, 1.09, -99.75, 50.8)" xlink:href="#linear-gradient"/><linearGradient id="linear-gradient-9" x1="115.39" y1="31.29" x2="115.39" y2="31.29" gradientTransform="matrix(1, 0, 0, 1, 0, 0)" xlink:href="#linear-gradient"/></defs><path d="M39.13,34.49s2.5,5.74,7,6.46c0,0-10.65,5.23-12.08-11.33l-.09-3.29s2.69,2.51,4.19,2.83S48.09,33.27,47,39a8.19,8.19,0,0,0-4.62-6.72c-4.42-2-6.33-2.62-7.26-3.57,0,0,.52,12.64,8.29,12.18C43.43,40.92,40,38.2,39.13,34.49Z" transform="translate(-31 -4.44)" style="fill-rule:evenodd;fill:url(#linear-gradient)"/><path d="M36.5,56.34s2.29,6.32,7.51,8.48c0,0-13.29,1.51-13-14.83l.29-3.2s2.89,3.3,4.64,4.09,11.38,7.23,9.41,12.39c0,0,.32-4.58-4.68-8s-7.21-4.59-8.21-5.81c0,0-.89,12.3,8.39,14.4C40.84,63.91,37.1,60.18,36.5,56.34Z" transform="translate(-31 -4.44)" style="fill-rule:evenodd;fill:url(#linear-gradient-2)"/><path d="M59.76,42.25s-3.09,4.31-7.94,5.37c0,0,11.06,2.3,13.79-9.41l.33-2.31a22,22,0,0,1-4.7,2.5c-1.63.41-11,4.12-10.27,8,0,0,.55-3.31,5.44-5.25s7-2.62,8-3.4c0,0-1.46,8.87-9.76,9.52C54.69,47.26,58.56,44.94,59.76,42.25Z" transform="translate(-31 -4.44)" style="fill-rule:evenodd;fill:url(#linear-gradient-3)"/><path d="M59.21,58.24s-.72,5.78-4.84,8.87c0,0,11.87-2.11,8.36-15.48l-.87-2.55S60,52.52,58.63,53.61s-8.46,8.81-5.72,12.56c0,0-1.21-3.68,2.49-7.72s5.36-5.59,6-6.84c0,0,3.23,9.88-4.43,14C57,65.56,59.47,61.55,59.21,58.24Z" transform="translate(-31 -4.44)" style="fill-rule:evenodd;fill:url(#linear-gradient-4)"/><path d="M53.74,66.09a10.93,10.93,0,0,0-1.4,7.9c.84,4.64,4.32,9,10.32,13.1l.35-.53c-5.85-4-9.23-8.22-10-12.67a10.54,10.54,0,0,1,1.29-7.44l0,0Z" transform="translate(-31 -4.44)" style="fill:url(#linear-gradient-5)"/><path d="M53.61,66a11.09,11.09,0,0,0-1.43,8c.86,4.68,4.35,9.11,10.39,13.2l.13.09.09-.14.35-.52.09-.13-.13-.09c-5.81-3.93-9.17-8.16-10-12.57a10.35,10.35,0,0,1,1.27-7.32l-.26-.19,0,0,.22,0-.48-.4-.13-.12Zm.73.59,0,0-.25-.19a10.65,10.65,0,0,0-1.31,7.56c.82,4.5,4.23,8.8,10.11,12.77l0-.22-.35.53.22,0c-6-4-9.42-8.4-10.25-13a10.76,10.76,0,0,1,1.37-7.78l-.23,0,.47.41.13.1Z" transform="translate(-31 -4.44)" style="fill:#00a551"/><path d="M44.88,64.75h0a47.11,47.11,0,0,1,8,12.16l.57-.28a48.68,48.68,0,0,0-8.1-12.33Z" transform="translate(-31 -4.44)" style="fill:url(#linear-gradient-6)"/><path d="M44.77,64.86A47.78,47.78,0,0,1,52.72,77l.07.15.14-.07.57-.27.14-.07-.06-.14a48.34,48.34,0,0,0-8.14-12.38l-.11-.11-.11.11-.45.45-.11.11Zm.45-.44h0A48.08,48.08,0,0,1,53.29,76.7l.08-.21-.57.28.2.07a48.3,48.3,0,0,0-8-12.2v.22l.44-.44Z" transform="translate(-31 -4.44)" style="fill:#00a551"/><path d="M51.05,47.59" transform="translate(-31 -4.44)" style="fill:none"/><path d="M51,64.32h0c0-.08-4.28-8.47.31-16.58l-.54-.31c-4.77,8.41-.37,17.09-.33,17.18Z" transform="translate(-31 -4.44)" style="fill:#00a551"/><path d="M47,40.49h0c.07,0,1.88.51,1.12,3.85l.61.15c.91-4-1.57-4.61-1.59-4.62Z" transform="translate(-31 -4.44)" style="fill:#00a551"/><path d="M117,29.48A39.88,39.88,0,0,0,46.4,55.31a39.87,39.87,0,0,0,70.21,26.25l-1-.82a38.61,38.61,0,0,1-68-25.43,38.62,38.62,0,0,1,68.32-25Z" transform="translate(-31 -4.44)" style="fill:url(#linear-gradient-7)"/><path d="M58.5,19.44s-7.45,8.46-5.66,17c0,0-15.25-15.56,10-29.55L68,4.44S65.78,11,66.27,13.93s0,20.8-9.77,22.83a15,15,0,0,0,7.59-12.93c.27-9.32,0-13.19.89-15.51,0,0-19.65,9.64-13.84,23.29C51.14,31.61,53.2,23.57,58.5,19.44Z" transform="translate(-31 -4.44)" style="fill-rule:evenodd;fill:url(#linear-gradient-8)"/><path d="M53.24,41h0c.18-.78.83-2.91,1.72-3.4L54.65,37c-1.29.72-1.95,3.51-2,3.82Z" transform="translate(-31 -4.44)" style="fill:#00a551"/><path d="M115.39,31.29" transform="translate(-31 -4.44)" style="fill-rule:evenodd;fill:url(#linear-gradient-9)"/><path d="M56,75.19a37.82,37.82,0,0,0,57.08,3.86" transform="translate(-31 -4.44)" style="fill:none"/><path d="M56,75.19a37.82,37.82,0,0,0,57.08,3.86" transform="translate(-31 -4.44)" style="fill:none"/><path d="M56.31,77.39a.37.37,0,0,1-.08-.19l.93-.69,1.31-.94.5-.34h-.18a.56.56,0,0,1-.17-.13.69.69,0,0,0-.21-.15.6.6,0,0,0-.3-.07,1.57,1.57,0,0,0-.33.08,1.42,1.42,0,0,0-.33.21.47.47,0,0,0-.16.15.09.09,0,0,0,0,.1s0,0,.07,0l.1-.05.11-.1.09-.1a.91.91,0,0,1,.27-.15.44.44,0,0,1,.28,0,1.21,1.21,0,0,1,.35.25c-.4.11-1,.33-1.82.63a9,9,0,0,1-1.49.45c-.16,0-.27,0-.3,0s0,0,0-.12l0,0a.11.11,0,0,0-.08,0l-.11.05a.38.38,0,0,0-.1.13.15.15,0,0,0,0,.14c.06.08.21.11.43.09a7.52,7.52,0,0,0,1.41-.41l.32.4-.48.33-.4.23a.69.69,0,0,1,.15.13l.08.15.07.12.07.07.13-.1Zm.58-1.07c-.1-.11-.16-.2-.21-.26l1-.39.59-.21c-.3.19-.75.5-1.36,1Z" transform="translate(-31 -4.44)" style="fill:#231f20"/><path d="M57.89,79s0-.08,0-.14a1.18,1.18,0,0,1,.26-.32,4,4,0,0,1,.57-.44,2,2,0,0,1,.43-.24.24.24,0,0,1,.2,0,.19.19,0,0,1,0,.16c0,.08,0,.13,0,.16a.09.09,0,0,0,.09,0,.25.25,0,0,0,.12-.07.36.36,0,0,0,.1-.18.15.15,0,0,0-.05-.16.37.37,0,0,0-.34-.08,2.53,2.53,0,0,0-.73.28,3.93,3.93,0,0,0-.74.52,1.35,1.35,0,0,0-.28.34c-.06.11-.06.19,0,.25s.38.14.79.07l.09-.14C58.16,79.06,58,79,57.89,79Z" transform="translate(-31 -4.44)" style="fill:#231f20"/><path d="M59.79,78.78a3.41,3.41,0,0,0-.88.63,1,1,0,0,0-.3.44.28.28,0,0,0,0,.32c.12.12.35.12.69,0a2.71,2.71,0,0,0,.93-.65,1.81,1.81,0,0,0,.35-.49c.06-.15,0-.25,0-.31S60.18,78.59,59.79,78.78Zm.56.22a2,2,0,0,1-.38.47,2.64,2.64,0,0,1-.74.58c-.19.09-.31.11-.37,0s0-.11,0-.2a1.62,1.62,0,0,1,.35-.45,3.06,3.06,0,0,1,.75-.59c.21-.11.34-.14.4-.09S60.4,78.89,60.35,79Z" transform="translate(-31 -4.44)" style="fill:#231f20"/><path d="M61.18,79.71s0,0,0,.06-.18.16-.47.41l-1,.87.15.14.71-.61a2.61,2.61,0,0,1,.45-.34,2,2,0,0,1,.41-.15c.09,0,.14,0,.16,0v0l0,.06-.16.14-1.3,1.13.16.13c.21-.19.49-.44.85-.73a1.61,1.61,0,0,1,.37-.28,1.28,1.28,0,0,1,.39-.13.13.13,0,0,1,.11,0s0,.06,0,.1a4.16,4.16,0,0,1-.42.38l-.62.53a2.27,2.27,0,0,0-.22.22.53.53,0,0,0-.12.19c0,.06,0,.1,0,.11s.09,0,.17,0L61,81.9l.21-.07,0-.11a2,2,0,0,1-.32.11l-.06,0s0,0,0-.09a8.39,8.39,0,0,1,.65-.58l.53-.46.13-.14a.6.6,0,0,0,.12-.17.1.1,0,0,0,0-.11s-.11,0-.23,0-.29.09-.52.18a3.34,3.34,0,0,0,.3-.27.4.4,0,0,0,.09-.14.06.06,0,0,0,0-.08c-.09-.08-.37,0-.83.16l.28-.24a.7.7,0,0,0,.15-.14l0-.06V79.6a.41.41,0,0,0-.23,0,2,2,0,0,0-.47.12l0,.11C61,79.71,61.15,79.68,61.18,79.71Z" transform="translate(-31 -4.44)" style="fill:#231f20"/><path d="M62.79,81.13s0,.05,0,.08a4.39,4.39,0,0,1-.47.47l-1.54,1.46a.87.87,0,0,1-.28.2.21.21,0,0,1-.2,0l-.11.09a2,2,0,0,1,.31.22l.28.27.1-.09a.66.66,0,0,1-.15-.26.33.33,0,0,1,.06-.14l.1-.1.68-.63a.34.34,0,0,0,.09.22c.15.1.4,0,.77-.18a4,4,0,0,0,1-.88,2.12,2.12,0,0,0,.21-.35c0-.09,0-.15,0-.18s-.15,0-.29,0a5.09,5.09,0,0,0-.56.23l.3-.27.1-.13a.24.24,0,0,0,.06-.09l0-.05s-.13,0-.26,0a2.3,2.3,0,0,0-.48.18l0,.13C62.63,81.16,62.76,81.11,62.79,81.13Zm-.57.91a4.92,4.92,0,0,1,.38-.33,1.62,1.62,0,0,1,.42-.19.3.3,0,0,1,.2,0s0,.07,0,.13a.78.78,0,0,1-.12.21,4.53,4.53,0,0,1-.73.72c-.29.22-.48.29-.57.22s-.08-.15,0-.32Z" transform="translate(-31 -4.44)" style="fill:#231f20"/><path d="M63.17,83.58a.23.23,0,0,1-.12,0s0,0,0-.09l.64-.66.81-.86c.28-.31.47-.52.58-.62a1,1,0,0,1,.22-.19.1.1,0,0,1,.09,0l.08.09.08.08a.09.09,0,0,0,.11,0,.33.33,0,0,0,.11-.1.42.42,0,0,0,.06-.14.1.1,0,0,0,0-.09.42.42,0,0,0-.37,0,1.34,1.34,0,0,0-.51.29c-.11.1-.33.31-.64.63l-.85.89c-.32.33-.53.56-.62.68a.53.53,0,0,0-.09.16.11.11,0,0,0,0,.1c.06,0,.16,0,.32,0a2.13,2.13,0,0,0,.49-.21l0-.11A1.89,1.89,0,0,1,63.17,83.58Z" transform="translate(-31 -4.44)" style="fill:#231f20"/><path d="M64.21,84.27c-.07,0-.12,0-.15,0a.12.12,0,0,1,0-.12.83.83,0,0,1,.13-.24l.18-.23.48-.07a1,1,0,0,0,.39-.17,1,1,0,0,0,.25-.25.69.69,0,0,0,.11-.26.16.16,0,0,0-.07-.17c-.15-.1-.4,0-.78.27a4,4,0,0,0-.83.86,1.69,1.69,0,0,0-.21.38c0,.1,0,.16.06.2s.43,0,.87-.18l0-.12Zm.68-1.21a.71.71,0,0,1,.27-.2s.09,0,.12,0,0,.05,0,.11a.56.56,0,0,1-.09.17.73.73,0,0,1-.24.22,1.43,1.43,0,0,1-.53.16Z" transform="translate(-31 -4.44)" style="fill:#231f20"/><path d="M66.25,83.45l-.18-.12-.13.15.19.11-.73.86c-.18.21-.3.37-.38.48a1.13,1.13,0,0,0-.11.23s0,.09,0,.1.1,0,.2,0a4.59,4.59,0,0,0,.66-.25l0-.14a2,2,0,0,1-.36.14.29.29,0,0,1-.17,0l0-.05a.19.19,0,0,1,0-.11,4.44,4.44,0,0,1,.37-.45l.62-.72.23.15.12-.16-.24-.14.51-.61-.28,0Z" transform="translate(-31 -4.44)" style="fill:#231f20"/><path d="M66.57,85.77a.19.19,0,0,1-.15,0,.1.1,0,0,1,0-.12.6.6,0,0,1,.11-.25l.16-.24a4.68,4.68,0,0,0,.48-.11,1.09,1.09,0,0,0,.37-.21.78.78,0,0,0,.24-.27.51.51,0,0,0,.08-.26.15.15,0,0,0-.08-.16c-.15-.09-.41,0-.76.34a4.43,4.43,0,0,0-.77.91,1.11,1.11,0,0,0-.17.4c0,.1,0,.16.07.19s.43,0,.86-.25l0-.13A2,2,0,0,1,66.57,85.77Zm.58-1.25a.74.74,0,0,1,.26-.21s.09,0,.12,0a.11.11,0,0,1,0,.1.6.6,0,0,1-.07.18.75.75,0,0,1-.23.24,1.35,1.35,0,0,1-.52.2Z" transform="translate(-31 -4.44)" style="fill:#231f20"/><path d="M70.58,85.05l.2-.29-.1-.1a.48.48,0,0,0-.15-.14.38.38,0,0,0-.33,0,1.27,1.27,0,0,0-.38.27,1.48,1.48,0,0,0-.3.42l-.1.24,0,.25a1.53,1.53,0,0,0,0,.36c0,.18,0,.3,0,.36a.92.92,0,0,1,0,.26l-.08.21a1.2,1.2,0,0,1-.4.46.43.43,0,0,1-.45.07.13.13,0,0,1-.09-.1.32.32,0,0,1,0-.17,1.8,1.8,0,0,1,.07-.27.74.74,0,0,0,.06-.2.08.08,0,0,0,0-.1s-.06,0-.11,0a.4.4,0,0,0-.12.16.71.71,0,0,0-.09.45.47.47,0,0,0,.23.35.6.6,0,0,0,.44,0,1,1,0,0,0,.46-.29,1.85,1.85,0,0,0,.35-.48,2.19,2.19,0,0,0,.13-.41,3.91,3.91,0,0,0,0-.66,1.44,1.44,0,0,1,0-.35,1.34,1.34,0,0,1,.09-.26,1,1,0,0,1,.33-.4.33.33,0,0,1,.32-.08.21.21,0,0,1,.09.18,1.06,1.06,0,0,1-.11.33,3.26,3.26,0,0,1-.21.39l.07,0Z" transform="translate(-31 -4.44)" style="fill:#231f20"/><path d="M70.68,86.36a3.15,3.15,0,0,0-.61.91,1.19,1.19,0,0,0-.14.52.3.3,0,0,0,.15.28c.16.07.37,0,.64-.25a2.65,2.65,0,0,0,.64-.93,1.42,1.42,0,0,0,.16-.59c0-.16,0-.25-.12-.29S71,86,70.68,86.36Zm.59,0a2.29,2.29,0,0,1-.19.57,2.82,2.82,0,0,1-.49.8c-.14.15-.25.21-.32.17s-.07-.08-.07-.19a1.74,1.74,0,0,1,.18-.55,3.3,3.3,0,0,1,.48-.81c.16-.17.28-.25.35-.21S71.29,86.25,71.27,86.38Z" transform="translate(-31 -4.44)" style="fill:#231f20"/><path d="M71.75,88.37q-.1,0-.12,0s0,0,0-.09.16-.29.44-.81l.56-1,.41-.74a.66.66,0,0,1,.17-.24.08.08,0,0,1,.09,0l.1.06s.07.06.1.07a.13.13,0,0,0,.11,0,.23.23,0,0,0,.08-.12.39.39,0,0,0,0-.15.1.1,0,0,0-.07-.08.41.41,0,0,0-.36.06,1.33,1.33,0,0,0-.41.41,8.35,8.35,0,0,0-.46.77l-.61,1.09c-.23.4-.37.68-.43.81a.79.79,0,0,0,0,.17s0,.08,0,.09.17,0,.31-.09a2.15,2.15,0,0,0,.41-.32v-.11A2.83,2.83,0,0,1,71.75,88.37Z" transform="translate(-31 -4.44)" style="fill:#231f20"/><path d="M73.5,88.17a1.83,1.83,0,0,1-.38.48c-.15.13-.25.18-.3.16s0,0,0,0l0-.1c0-.07.14-.3.35-.7a6.55,6.55,0,0,0,.42-.85.31.31,0,0,0,0-.15s0-.06,0-.06-.1,0-.19,0a3,3,0,0,0-.42.3l0,.12a1.33,1.33,0,0,1,.23-.18.15.15,0,0,1,.08,0s0,0,0,.08-.16.33-.37.72l-.34.63-.1.22a.58.58,0,0,0,0,.2.07.07,0,0,0,.06.08s.14,0,.25,0a1.74,1.74,0,0,0,.47-.36,2.38,2.38,0,0,0-.16.36.51.51,0,0,0,0,.2s0,.07,0,.08.29-.1.61-.41l0-.11-.28.24-.07,0,0,0,0-.07a7.64,7.64,0,0,1,.43-.88l.45-.88-.2-.06Z" transform="translate(-31 -4.44)" style="fill:#231f20"/><path d="M75,87.57l-.22-.07-.08.18.21.07-.48,1a6.12,6.12,0,0,0-.23.57.51.51,0,0,0,0,.24c0,.06,0,.09.06.1a.4.4,0,0,0,.19,0,4.91,4.91,0,0,0,.58-.41l0-.15a1.66,1.66,0,0,1-.31.23c-.08,0-.13.07-.16.06l0,0,0-.11a3.58,3.58,0,0,1,.22-.52l.41-.86.26.09.08-.19-.27-.09.33-.71-.26.1Z" transform="translate(-31 -4.44)" style="fill:#231f20"/><path d="M76.11,88.1a.11.11,0,0,1,.07,0v0l0,.11a16.1,16.1,0,0,0-.67,1.57.34.34,0,0,0,0,.17.08.08,0,0,0,.06.08s.09,0,.17-.06a3.9,3.9,0,0,0,.41-.37l0-.12c-.19.19-.29.28-.32.27l0,0v0c0-.13.19-.5.46-1.11.16-.37.26-.59.27-.64v-.1l0,0c-.06,0-.13,0-.23.08a1.76,1.76,0,0,0-.35.34l0,.12A2.45,2.45,0,0,1,76.11,88.1Zm.68-1.35a.42.42,0,0,0-.1.2v.15a.08.08,0,0,0,0,.08s.08,0,.11-.07a.42.42,0,0,0,.1-.2v-.14s0-.07,0-.08S76.82,86.7,76.79,86.75Z" transform="translate(-31 -4.44)" style="fill:#231f20"/><path d="M77.06,88.61a3.48,3.48,0,0,0-.43,1,1.17,1.17,0,0,0,0,.54c0,.15.09.23.2.25s.35-.09.57-.37a2.38,2.38,0,0,0,.47-1,1.51,1.51,0,0,0,0-.61c0-.15-.08-.24-.17-.26S77.3,88.25,77.06,88.61Zm.59-.09a2.32,2.32,0,0,1-.08.59,2.57,2.57,0,0,1-.34.88c-.11.17-.2.25-.29.23s-.08-.07-.1-.18a2.29,2.29,0,0,1,.07-.57,3.51,3.51,0,0,1,.34-.88c.13-.21.23-.3.3-.28S77.64,88.39,77.65,88.52Z" transform="translate(-31 -4.44)" style="fill:#231f20"/><path d="M78.65,88.74s.07,0,.08,0,0,0,0,.07l0,.09-.34,1-.27.76.21,0,.32-.92a2.16,2.16,0,0,1,.18-.45,1.46,1.46,0,0,1,.3-.35c.07-.07.12-.1.16-.1s0,0,0,.09,0,.17-.13.4a10.29,10.29,0,0,0-.39,1.18.54.54,0,0,0,0,.24.11.11,0,0,0,.07.09s.1,0,.18-.08a2.43,2.43,0,0,0,.35-.4l0-.1-.15.18a.83.83,0,0,1-.14.13l0,0v-.08c0-.13.11-.37.24-.73s.22-.64.25-.75l0-.2a.47.47,0,0,0,0-.2.11.11,0,0,0-.07-.08.4.4,0,0,0-.22.11,5.68,5.68,0,0,0-.47.51L79,88.6a.92.92,0,0,0,0-.09v-.06l0,0a.28.28,0,0,0-.2.07,2.68,2.68,0,0,0-.37.38l0,.1A1.6,1.6,0,0,1,78.65,88.74Z" transform="translate(-31 -4.44)" style="fill:#231f20"/><path d="M80.49,88.89a1.07,1.07,0,0,0-.18.45,1.43,1.43,0,0,0,0,.64,2.45,2.45,0,0,1,.08.35v.2l-.06.21a.85.85,0,0,1-.11.14.24.24,0,0,1-.14,0,.14.14,0,0,1-.1-.08.29.29,0,0,1,0-.16l0-.06v-.19s0-.07-.07-.07a.14.14,0,0,0-.09,0,.59.59,0,0,0-.06.16.64.64,0,0,0,0,.34.28.28,0,0,0,.23.17.37.37,0,0,0,.37-.16,1,1,0,0,0,.21-.49,1.63,1.63,0,0,0-.07-.64,2.65,2.65,0,0,1-.09-.37v-.22a.51.51,0,0,1,.08-.21c0-.06.07-.08.11-.07s.08.07.11.2a.49.49,0,0,0,0,.13l0,0s0,0,.08-.05l0-.12a.35.35,0,0,0,0-.23.21.21,0,0,0-.17-.12A.32.32,0,0,0,80.49,88.89Z" transform="translate(-31 -4.44)" style="fill:#231f20"/><path d="M82.48,89.31l.33,0-.5,2.23a2.53,2.53,0,0,1-.2.62.21.21,0,0,1-.23.11l-.2,0-.09,0a.1.1,0,0,0-.1,0,.38.38,0,0,0,0,.14.25.25,0,0,0,0,.17.14.14,0,0,0,.14.08c.18,0,.37-.09.57-.35a3.42,3.42,0,0,0,.46-1.19L83,89.38l.37,0,0-.2-.36,0,.11-.58a3.38,3.38,0,0,1,.18-.6c0-.15.11-.22.17-.22l.1,0,.16.07a.08.08,0,0,0,.08,0l0-.14a.43.43,0,0,0,0-.17.13.13,0,0,0-.12-.07c-.09,0-.19.06-.31.18a1.78,1.78,0,0,0-.32.51,8.3,8.3,0,0,0-.27,1l-.33,0Z" transform="translate(-31 -4.44)" style="fill:#231f20"/><path d="M83.92,89.67a3.64,3.64,0,0,0-.24,1.07,1.19,1.19,0,0,0,.06.53c.05.14.14.21.24.21s.34-.14.5-.46a2.59,2.59,0,0,0,.28-1.1,1.76,1.76,0,0,0-.07-.61c0-.14-.12-.22-.21-.22S84.09,89.27,83.92,89.67Zm.56-.19a1.78,1.78,0,0,1,0,.6,2.62,2.62,0,0,1-.16.92c-.07.19-.15.29-.24.28s-.1-.06-.12-.16a1.65,1.65,0,0,1,0-.58,3.41,3.41,0,0,1,.16-.93c.1-.21.17-.33.26-.32S84.45,89.35,84.48,89.48Z" transform="translate(-31 -4.44)" style="fill:#231f20"/><path d="M85.61,91a5.09,5.09,0,0,1,.11-.7,3.25,3.25,0,0,1,.11-.35,1.64,1.64,0,0,1,.15-.3,1.29,1.29,0,0,1,.16-.17.76.76,0,0,0,.15-.12l0-.13,0-.13,0-.06c-.06,0-.11.06-.17.16a3.83,3.83,0,0,0-.32.75l.07-.49c0-.1,0-.17,0-.19l0-.06,0,0c-.05,0-.12,0-.21.14a1.61,1.61,0,0,0-.28.42l0,.1a2.86,2.86,0,0,1,.16-.28l0,0s0,0,0,.07a1.14,1.14,0,0,1,0,.15q-.06.5-.15,1l-.12.75h.22Z" transform="translate(-31 -4.44)" style="fill:#231f20"/><path d="M87.94,91.46a4.64,4.64,0,0,1,.62,0h.23a.35.35,0,0,0,.28-.2.81.81,0,0,0,.07-.42.5.5,0,0,0,0-.2l0-.08s-.08,0-.09.06v.12l0,.14a1,1,0,0,1,0,.15.25.25,0,0,1,0,.15l0,.08a.65.65,0,0,1-.25-.06l-.23-.07H88.3a.87.87,0,0,0-.32.1,1.14,1.14,0,0,0,.08-.32c0-.19.07-.56.12-1.12a6.85,6.85,0,0,1,.07-.76,4.41,4.41,0,0,1,.09-.52,1,1,0,0,1,.1-.24.14.14,0,0,1,.06,0,.12.12,0,0,1,.09,0,1,1,0,0,1,.11.15.56.56,0,0,0,.08.11.1.1,0,0,0,.08-.06v-.11a.47.47,0,0,0-.09-.22c-.06-.07-.11-.11-.19-.1s-.21.09-.3.26a2,2,0,0,0-.24.77c0,.22-.08.6-.12,1.11s-.05.65-.07.78a1.07,1.07,0,0,1-.09.26.41.41,0,0,1-.2.14l0,.14A2.13,2.13,0,0,1,87.94,91.46Z" transform="translate(-31 -4.44)" style="fill:#231f20"/><path d="M89.85,89.36l0,0s0,0,0,0v.12a16.46,16.46,0,0,0,0,1.71.35.35,0,0,0,0,.17.09.09,0,0,0,.09,0s.08,0,.14-.12a3.39,3.39,0,0,0,.24-.5l-.07-.1c-.1.25-.17.37-.2.38l0,0,0,0c0-.14,0-.54,0-1.21,0-.41,0-.64,0-.69l0-.1A.1.1,0,0,0,90,89s-.1.06-.18.16a2.16,2.16,0,0,0-.21.45l.08.09A1.19,1.19,0,0,1,89.85,89.36ZM90,87.85a1.34,1.34,0,0,0,0,.21.3.3,0,0,0,0,.15.11.11,0,0,0,0,.06c.06,0,.08,0,.11-.11a.54.54,0,0,0,0-.22l0-.14s0-.06-.07,0S90,87.78,90,87.85Z" transform="translate(-31 -4.44)" style="fill:#231f20"/><path d="M91.41,88.9l0-.08s0,0,0,0,0,0-.1.09a.8.8,0,0,0-.35.11.49.49,0,0,0-.16.24.7.7,0,0,0,0,.29.24.24,0,0,0,0,.16s0,.06.06.06l.05,0v-.09l0-.1a.58.58,0,0,1,0-.13.18.18,0,0,1,.05-.17.47.47,0,0,1,.34-.15,1.47,1.47,0,0,0-.15.5,2.26,2.26,0,0,0,0,.58c0,.15.07.42.16.79,0,.18.08.32.09.41a2.75,2.75,0,0,0,.54-1.14,3.29,3.29,0,0,0,0-1.17.84.84,0,0,0-.07-.26s0-.07-.08-.07,0,0,0,.06v.13a1.22,1.22,0,0,0,.07.2.68.68,0,0,1,.06.21,2.17,2.17,0,0,1,0,.71,3.43,3.43,0,0,1-.33.92,7.3,7.3,0,0,1-.15-.73,4.53,4.53,0,0,1,0-.52c0-.18,0-.38.06-.62A.23.23,0,0,0,91.41,88.9Z" transform="translate(-31 -4.44)" style="fill:#231f20"/><path d="M93.1,90.53a.24.24,0,0,1-.12.09s-.07,0-.11-.06a1.92,1.92,0,0,1-.08-.27l0-.29c.16-.19.25-.32.3-.39a1.24,1.24,0,0,0,.16-.39.92.92,0,0,0,0-.37.62.62,0,0,0-.1-.26.18.18,0,0,0-.17-.06c-.18,0-.29.28-.35.75a4,4,0,0,0,0,1.2,1,1,0,0,0,.13.41c0,.08.1.11.17.1s.34-.28.49-.75l-.07-.11A1.92,1.92,0,0,1,93.1,90.53Zm-.37-1.33a1,1,0,0,1,0-.33c0-.06,0-.09.08-.1a.11.11,0,0,1,.1.06A.93.93,0,0,1,93,89a.75.75,0,0,1,0,.33,1.38,1.38,0,0,1-.26.49C92.73,89.61,92.72,89.41,92.73,89.2Z" transform="translate(-31 -4.44)" style="fill:#231f20"/><path d="M94,88.54A1,1,0,0,0,94,89a1.39,1.39,0,0,0,.27.58c.11.14.17.24.21.3l.07.19v.21a.29.29,0,0,1,0,.17.22.22,0,0,1-.13.08.13.13,0,0,1-.12,0l-.07-.14v-.13l0-.11s-.06-.05-.08,0a.08.08,0,0,0-.06.08.22.22,0,0,0,0,.16.54.54,0,0,0,.15.31.26.26,0,0,0,.27.08.36.36,0,0,0,.29-.28,1,1,0,0,0,0-.54,1.4,1.4,0,0,0-.29-.57,2.41,2.41,0,0,1-.21-.31l-.07-.21a.33.33,0,0,1,0-.22.13.13,0,0,1,.07-.11s.1,0,.17.14a.65.65,0,0,0,.09.11h0a.09.09,0,0,0,.06-.07v-.14a.41.41,0,0,0-.12-.2.24.24,0,0,0-.2,0A.36.36,0,0,0,94,88.54Z" transform="translate(-31 -4.44)" style="fill:#231f20"/><path d="M95.25,88.21l-.22.06,0,.19.22,0,.13,1.1a3.87,3.87,0,0,0,.09.61.86.86,0,0,0,.09.24.11.11,0,0,0,.1,0s.09-.06.14-.14a3.66,3.66,0,0,0,.27-.66L96,89.49l-.15.37c0,.08-.08.13-.1.13l-.05,0a.3.3,0,0,1,0-.1c0-.1,0-.29-.08-.57l-.11-.94.28-.07,0-.2-.27.08-.1-.79-.17.22Z" transform="translate(-31 -4.44)" style="fill:#231f20"/><path d="M96.49,88.34a3.4,3.4,0,0,0,.13,1.08,1.07,1.07,0,0,0,.24.48.26.26,0,0,0,.28.12c.17,0,.27-.26.33-.61a3,3,0,0,0-.11-1.13,1.58,1.58,0,0,0-.27-.54c-.1-.13-.2-.18-.28-.15S96.51,87.9,96.49,88.34ZM97,88a2.37,2.37,0,0,1,.22.56,2.63,2.63,0,0,1,.15.93c0,.21,0,.32-.12.35s-.12,0-.18-.11a1.78,1.78,0,0,1-.23-.53,3.39,3.39,0,0,1-.15-.93q0-.36.12-.39C96.82,87.81,96.88,87.85,97,88Z" transform="translate(-31 -4.44)" style="fill:#231f20"/><path d="M98.65,89.23a.14.14,0,0,1-.14-.07,1,1,0,0,1-.18-.38,3.15,3.15,0,0,1-.16-.69,1.5,1.5,0,0,1,0-.49c0-.09,0-.15.09-.16s.08,0,.15,0a.21.21,0,0,0,.15,0,.1.1,0,0,0,.06-.08.39.39,0,0,0,0-.14.27.27,0,0,0-.11-.16.15.15,0,0,0-.17,0,.39.39,0,0,0-.22.28,2.45,2.45,0,0,0,0,.76,4.25,4.25,0,0,0,.16.89,1.18,1.18,0,0,0,.2.39c.07.1.15.14.23.11s.29-.26.39-.68l-.08-.14C98.85,89,98.76,89.2,98.65,89.23Z" transform="translate(-31 -4.44)" style="fill:#231f20"/><path d="M99.64,87.85l.2.19c.07.09.17.23.29.42.26.39.44.63.53.74a1.44,1.44,0,0,0,.4.37.36.36,0,0,0,.33,0,.27.27,0,0,0,.18-.25.69.69,0,0,0,0-.37.56.56,0,0,0-.09-.14s-.07,0-.09,0,0,0,0,.07V89l.07.1.06.09a.28.28,0,0,1,0,.13.17.17,0,0,1-.09.11.32.32,0,0,1-.29-.09,2.68,2.68,0,0,1-.48-.61c-.18-.26-.32-.45-.41-.56A1.34,1.34,0,0,0,100,88l-.24-.13a.55.55,0,0,0,.36-.41.82.82,0,0,0,0-.55,1,1,0,0,0-.14-.23c-.06,0-.11-.07-.15,0a.3.3,0,0,0-.15.19,2.38,2.38,0,0,0-.08.54l-.23-.88c-.09-.33-.14-.54-.16-.64a.7.7,0,0,1,0-.23.12.12,0,0,1,0-.08h.07l.18,0a.11.11,0,0,0,0-.08.36.36,0,0,0,0-.14l-.08-.11a.11.11,0,0,0-.12,0,.29.29,0,0,0-.13.12.88.88,0,0,0-.1.26,1.72,1.72,0,0,0,0,.33,3,3,0,0,0,.07.44c0,.17.14.62.32,1.36l.36,1.49.21-.07Zm-.09-.32c0-.42.09-.64.16-.67s.06,0,.09,0a.28.28,0,0,1,.09.14.7.7,0,0,1,.06.27.41.41,0,0,1-.08.25.75.75,0,0,1-.26.18Z" transform="translate(-31 -4.44)" style="fill:#231f20"/><path d="M102.8,84.08a.61.61,0,0,0-.08-.37.49.49,0,0,0-.1-.13.07.07,0,0,0-.08,0s0,0,0,.06l0,.12.06.08s0,.07,0,.09a.3.3,0,0,1,0,.11.08.08,0,0,1-.06.08l-.12.05-.06,0a.54.54,0,0,0-.27.27.86.86,0,0,0,0,.43,2.13,2.13,0,0,0,.15.49.44.44,0,0,0,.11.16s.07,0,.09,0l0-.06,0-.11-.06-.11a1.65,1.65,0,0,1-.13-.22.52.52,0,0,1,0-.4.48.48,0,0,1,.26-.24l.09.4c0,.14.08.29.13.46s.08.25.17.5a5.14,5.14,0,0,1,.17.54,2.51,2.51,0,0,1,.09.34l0,.29a5.1,5.1,0,0,0-.6-.45,1.36,1.36,0,0,0-.33-.15.45.45,0,0,0,.07-.53.42.42,0,0,0-.17-.18.23.23,0,0,0-.23,0c-.14.06-.21.22-.22.48a1.86,1.86,0,0,0,.19.85,1.81,1.81,0,0,0,.53.71.57.57,0,0,0,.59.12.64.64,0,0,0,.3-.54c.19.16.31.25.37.29a.49.49,0,0,0,.22.08.23.23,0,0,0,.17,0,.41.41,0,0,0,.19-.38,1.14,1.14,0,0,0-.15-.58.64.64,0,0,0-.1-.14.07.07,0,0,0-.08,0s0,0,0,.07l0,.13s0,.07.08.12l.08.11a.45.45,0,0,1,0,.28.24.24,0,0,1-.11.2.29.29,0,0,1-.24,0,2.11,2.11,0,0,1-.48-.32,2.83,2.83,0,0,0-.07-.76c-.05-.19-.16-.53-.34-1l-.22-.59-.09-.31A.32.32,0,0,0,102.8,84.08Zm-.76,2.3a1.6,1.6,0,0,1,.35.12l.29.18s.23.18.53.44a.36.36,0,0,1-.2.28.36.36,0,0,1-.33,0,1.1,1.1,0,0,1-.39-.29,1.66,1.66,0,0,1-.29-.42,1.4,1.4,0,0,1-.12-.55c0-.17,0-.28.12-.31a.09.09,0,0,1,.11,0,.31.31,0,0,1,.1.12.29.29,0,0,1,0,.22.31.31,0,0,1-.21.17Z" transform="translate(-31 -4.44)" style="fill:#231f20"/><path d="M105,83.63h0l.06.06s0,.07.07.14l.68,1.54a1.49,1.49,0,0,1,.15.5.33.33,0,0,1-.11.22l.06.14a.7.7,0,0,1,.21-.21l.18-.07.2-.08a.51.51,0,0,0,.14-.15l-.07-.15a.42.42,0,0,1-.15.19.8.8,0,0,1-.2.06l-.17-.41-.35-.8.1,0a.6.6,0,0,0,.26-.34.94.94,0,0,0,0-.5,2,2,0,0,0-.21-.51,1,1,0,0,0-.27-.3.64.64,0,0,0-.31-.15.55.55,0,0,0-.34.08.94.94,0,0,0-.36,1A2.89,2.89,0,0,0,105,85a2.21,2.21,0,0,0,.36.45c.11.1.2.14.25.11l0-.06,0-.11a.35.35,0,0,0-.16-.13.79.79,0,0,1-.23-.16,1.24,1.24,0,0,1-.18-.25,2.19,2.19,0,0,1-.26-.69,1.62,1.62,0,0,1,0-.69A.65.65,0,0,1,105,83a.32.32,0,0,1,.34,0,.85.85,0,0,1,.32.33,1.73,1.73,0,0,1,.21.49.94.94,0,0,1,0,.39.26.26,0,0,1-.12.17l-.11.06-.33-.72c-.09-.2-.16-.36-.2-.48a1.17,1.17,0,0,1-.24.27l0,.12Z" transform="translate(-31 -4.44)" style="fill:#231f20"/><path d="M106.68,83.66a3.5,3.5,0,0,0,.45,1,1.32,1.32,0,0,0,.37.4.29.29,0,0,0,.32,0c.14-.1.18-.32.11-.68a2.47,2.47,0,0,0-.43-1,2.08,2.08,0,0,0-.41-.45c-.13-.08-.24-.1-.32,0S106.57,83.24,106.68,83.66Zm.34-.5a2.37,2.37,0,0,1,.37.46,3,3,0,0,1,.43.85c.05.19,0,.32,0,.36s-.11,0-.2,0a1.59,1.59,0,0,1-.38-.44,3.43,3.43,0,0,1-.42-.84c-.06-.23-.06-.37,0-.41S106.92,83.08,107,83.16Z" transform="translate(-31 -4.44)" style="fill:#231f20"/><path d="M108.83,82.9a1.58,1.58,0,0,1,.19.58c0,.2,0,.31,0,.35s0,0-.06,0l-.07-.07s-.17-.28-.39-.68a6.6,6.6,0,0,0-.47-.83.38.38,0,0,0-.11-.11s0,0-.07,0,0,.08-.06.18a2.79,2.79,0,0,0,0,.52l.1,0a2.09,2.09,0,0,1,0-.29.17.17,0,0,1,0-.09s0,0,.07.06a7.1,7.1,0,0,1,.4.71l.33.62.12.2a.51.51,0,0,0,.15.15s.08,0,.1,0a.37.37,0,0,0,.1-.25,2,2,0,0,0,0-.59c.08.14.16.25.21.33a.42.42,0,0,0,.15.13.08.08,0,0,0,.1,0c.07-.06.07-.3,0-.72l-.09-.05a2.78,2.78,0,0,1,0,.36s0,.06,0,.06h0l-.06,0c0-.06-.21-.35-.48-.85l-.5-.86-.15.12Z" transform="translate(-31 -4.44)" style="fill:#231f20"/><path d="M110.38,82.75a.14.14,0,0,1,0,.11s0,0-.08,0-.18-.28-.48-.78l-.62-1q-.35-.52-.45-.72a1.23,1.23,0,0,1-.12-.25.08.08,0,0,1,0-.09l.1-.06.11-.06a.09.09,0,0,0,0-.1.29.29,0,0,0-.08-.14.23.23,0,0,0-.11-.08.09.09,0,0,0-.1,0,.42.42,0,0,0-.12.35,1.31,1.31,0,0,0,.15.56c.07.14.21.4.45.78l.64,1a8.71,8.71,0,0,0,.49.78.37.37,0,0,0,.14.12.12.12,0,0,0,.1,0s.07-.15.07-.31a1.81,1.81,0,0,0-.07-.52l-.1,0A1.91,1.91,0,0,1,110.38,82.75Z" transform="translate(-31 -4.44)" style="fill:#231f20"/><path d="M110,80.63l-.18.14.12.17.17-.15.59.94c.16.24.27.4.36.51a.67.67,0,0,0,.18.17.11.11,0,0,0,.11,0,.34.34,0,0,0,.07-.19,3.8,3.8,0,0,0,0-.71l-.13-.07,0,.39c0,.1,0,.15,0,.17h0l-.08-.08a4.74,4.74,0,0,1-.32-.48l-.52-.79.22-.19-.12-.16-.21.18-.44-.65,0,.27Z" transform="translate(-31 -4.44)" style="fill:#231f20"/><path d="M112.11,81c-.22-.3-.35-.49-.4-.58a3.47,3.47,0,0,1-.16-.33,1.81,1.81,0,0,1-.1-.32.65.65,0,0,1,0-.24.43.43,0,0,0,0-.19l-.07-.11-.1-.07s-.07,0-.09,0,0,.09,0,.2a4.29,4.29,0,0,0,.28.77l-.29-.4-.11-.15,0,0h0s0,.12,0,.25a1.64,1.64,0,0,0,.07.49l.1,0a1.63,1.63,0,0,1-.06-.3q0-.08,0-.09s0,0,.07,0,.05.06.09.13a10,10,0,0,1,.61.86l.43.62.17-.14Z" transform="translate(-31 -4.44)" style="fill:#231f20"/><path d="M112,79.14s.08,0,.17,0a4,4,0,0,1,.7.48,8.15,8.15,0,0,1,.7.62,2,2,0,0,1,.32.45,1.44,1.44,0,0,1,.17.49c0,.11,0,.19,0,.23s0,0-.12.06l-.12.08a.1.1,0,0,0,0,.11.33.33,0,0,0,.07.13.27.27,0,0,0,.15.09.22.22,0,0,0,.16-.06.46.46,0,0,0,.11-.29,1.39,1.39,0,0,0-.08-.52,4.33,4.33,0,0,0-.4-.88,7.15,7.15,0,0,0-.61-1,5.77,5.77,0,0,0-.58-.69.59.59,0,0,0-.17-.13s-.09,0-.11,0,0,0,0,.09l.07.11.22.18.22.18a5.08,5.08,0,0,1,.79,1.14,1.08,1.08,0,0,0-.14-.15,6.45,6.45,0,0,0-.78-.66,4.39,4.39,0,0,0-.72-.45s-.08,0-.1,0l0,.07s0,.16,0,.33l0,.17.13.07C111.93,79.26,111.93,79.17,112,79.14Z" transform="translate(-31 -4.44)" style="fill:#231f20"/><path d="M58.73,72.92a36.42,36.42,0,0,0,52.36,3.82l-.3-.31a36,36,0,0,1-51.72-3.78Z" transform="translate(-31 -4.44)" style="fill:#231f20"/><path d="M69.15,28.36a34.56,34.56,0,0,1,18.17-5A35.55,35.55,0,0,1,110,32l.28-.34a36,36,0,0,0-23-8.76A35,35,0,0,0,68.93,28Z" transform="translate(-31 -4.44)" style="fill:#231f20"/><path d="M68.57,24.55a36.15,36.15,0,0,1,18.63-5,37,37,0,0,1,23.28,8.66" transform="translate(-31 -4.44)" style="fill:none"/><path d="M71,24.86a.45.45,0,0,1-.28,0,1.77,1.77,0,0,1-.4-.24l-.78-.57a.69.69,0,0,0,.2-.43,1.12,1.12,0,0,0-.11-.49.94.94,0,0,0-.31-.34.58.58,0,0,0-.36-.1,1.46,1.46,0,0,0-.48.17l-.67.37,0,.07.06,0a.22.22,0,0,1,.22,0,1.11,1.11,0,0,1,.21.29l1,1.69a1.11,1.11,0,0,1,.13.31.16.16,0,0,1-.09.19l-.06,0,0,.07.74-.4,0-.07-.06,0a.18.18,0,0,1-.2,0,.94.94,0,0,1-.21-.29l-.42-.76,0,0,0,0,.11-.06,1.27.91.46-.24Zm-2.56-1.71a.61.61,0,0,1,.19-.16A.35.35,0,0,1,69,23a.69.69,0,0,1,.32.35.68.68,0,0,1,.1.49.55.55,0,0,1-.29.37h0l0,0Z" transform="translate(-31 -4.44)" style="fill:#231f20"/><path d="M71.23,21.68a.42.42,0,0,1,.21-.06.26.26,0,0,1,.16.07,1.48,1.48,0,0,1,.2.26l.06,0-.29-.6L70.09,22l0,.07.07,0a.22.22,0,0,1,.22,0,.91.91,0,0,1,.19.31l.86,1.75a1.66,1.66,0,0,1,.11.27.16.16,0,0,1,0,.12.18.18,0,0,1-.1.11l-.06,0,0,.07,1.38-.63-.16-.77-.06,0a1.67,1.67,0,0,1,0,.45.3.3,0,0,1-.07.19.69.69,0,0,1-.2.13l-.31.14a.16.16,0,0,1-.11,0l-.07,0a1.32,1.32,0,0,1-.11-.22l-.42-.88.39-.19a.38.38,0,0,1,.19,0A.22.22,0,0,1,72,23a.91.91,0,0,1,.15.24l.06,0-.44-.95,0,0a.6.6,0,0,1,.07.36c0,.07-.07.12-.17.17l-.41.19-.51-1.07Z" transform="translate(-31 -4.44)" style="fill:#231f20"/><path d="M74.56,23.36c-.06-.88-.11-1.77-.15-2.66l.68,1.9a1,1,0,0,1,.08.32.18.18,0,0,1-.13.17l-.06,0,0,.08c.27-.1.52-.21.79-.29l0-.08-.06,0a.2.2,0,0,1-.2,0,1,1,0,0,1-.14-.31l-.66-1.87a.82.82,0,0,1-.08-.32.17.17,0,0,1,.15-.17l.07,0,0-.08a5.37,5.37,0,0,0-.56.21c0,.83.07,1.65.13,2.46q-.75-1-1.56-1.92l-.57.23,0,.07a.23.23,0,0,1,.19,0l.11.06a1.12,1.12,0,0,1,.15.26l.76,1.83a1.19,1.19,0,0,1,.09.31.19.19,0,0,1-.12.17l-.06,0,0,.08.63-.25,0-.08-.07,0a.18.18,0,0,1-.2,0,.9.9,0,0,1-.16-.3l-.77-1.87c.57.68,1.13,1.37,1.67,2.07Z" transform="translate(-31 -4.44)" style="fill:#231f20"/><path d="M76.54,19.69a.73.73,0,0,1,.21,0,.31.31,0,0,1,.15.1,2.59,2.59,0,0,1,.16.29l0,0-.19-.63-1.56.48,0,.07.08,0a.18.18,0,0,1,.2,0,1,1,0,0,1,.15.34l.59,1.86a1,1,0,0,1,.07.28.19.19,0,0,1,0,.13.21.21,0,0,1-.11.08l-.07,0,0,.07,1.43-.44,0-.79-.06,0a2,2,0,0,1-.06.45.5.5,0,0,1-.1.18.57.57,0,0,1-.22.1l-.32.1a.15.15,0,0,1-.11,0l-.06-.05a.77.77,0,0,1-.08-.23l-.29-.94L76.8,21a.35.35,0,0,1,.2,0,.31.31,0,0,1,.11.09,1.08,1.08,0,0,1,.12.26h.06l-.29-1h-.06a.69.69,0,0,1,0,.37.29.29,0,0,1-.2.14l-.42.13L76,19.85Z" transform="translate(-31 -4.44)" style="fill:#231f20"/><path d="M79.26,21.92a1,1,0,0,0,.73-.66A2.25,2.25,0,0,0,80,20.18a2.4,2.4,0,0,0-.31-.78.92.92,0,0,0-.49-.42,1.34,1.34,0,0,0-.74,0l-.84.2,0,.07h.08a.21.21,0,0,1,.2,0,.8.8,0,0,1,.12.34l.47,1.89a.83.83,0,0,1,0,.33.18.18,0,0,1-.14.16l-.07,0,0,.07Zm-1-2.64a.66.66,0,0,1,.3-.13.69.69,0,0,1,.67.21,1.8,1.8,0,0,1,.43.91,1.88,1.88,0,0,1,0,1,.66.66,0,0,1-.46.49,1.07,1.07,0,0,1-.32,0Z" transform="translate(-31 -4.44)" style="fill:#231f20"/><path d="M81.66,21.38a.18.18,0,0,1-.14,0l-.07-.09a1.32,1.32,0,0,1-.07-.3L81.07,19a.9.9,0,0,1,0-.35.19.19,0,0,1,.17-.14h.07v-.08l-.89.15v.07h.07a.3.3,0,0,1,.16,0l.07.09a1.61,1.61,0,0,1,.08.3L81.1,21a.85.85,0,0,1,0,.34.19.19,0,0,1-.15.15H80.9v.07l.83-.13v-.08Z" transform="translate(-31 -4.44)" style="fill:#231f20"/><path d="M83.06,18.41a.49.49,0,0,1,.22,0,.3.3,0,0,1,.13.12,1.3,1.3,0,0,1,.09.32h.07l-.08-.66c-.54.06-1.08.09-1.63.17l0,.08H82a.19.19,0,0,1,.2.06,1.26,1.26,0,0,1,.09.36l.24,1.93a2.85,2.85,0,0,1,0,.3l-.05.11a.28.28,0,0,1-.12.08h-.07v.07c.5-.07,1-.1,1.5-.15l.11-.77h-.07a2.05,2.05,0,0,1-.15.43.33.33,0,0,1-.13.15.5.5,0,0,1-.23.06l-.33,0a.17.17,0,0,1-.11,0L82.8,21s0-.1,0-.24l-.13-1,.45,0a.29.29,0,0,1,.19,0,.22.22,0,0,1,.1.11s0,.13.07.28h0l-.1-1h-.06a.57.57,0,0,1,0,.37.25.25,0,0,1-.22.09l-.44.05-.15-1.18Z" transform="translate(-31 -4.44)" style="fill:#231f20"/><path d="M85.6,18a.78.78,0,0,1,0,.14l-.07,0s-.06,0-.12-.05A.7.7,0,0,0,85,18a.53.53,0,0,0-.44.25,1,1,0,0,0-.13.58.74.74,0,0,0,.08.34.83.83,0,0,0,.19.27,3.34,3.34,0,0,0,.39.33l.32.28a.6.6,0,0,1,.14.21.85.85,0,0,1,0,.22.53.53,0,0,1-.09.35.31.31,0,0,1-.27.15.39.39,0,0,1-.29-.09.68.68,0,0,1-.22-.26,2.91,2.91,0,0,1-.13-.47h0l.07,1h.05a.37.37,0,0,1,0-.14l.06,0,.18.06.18.08.17,0a.53.53,0,0,0,.43-.26,1.07,1.07,0,0,0,.15-.6A1,1,0,0,0,85.8,20a.85.85,0,0,0-.16-.28,4,4,0,0,0-.41-.34,1.77,1.77,0,0,1-.46-.43.58.58,0,0,1-.09-.25.55.55,0,0,1,.09-.33.33.33,0,0,1,.25-.15.48.48,0,0,1,.29.1.64.64,0,0,1,.21.27,1.69,1.69,0,0,1,.12.47h.06l0-1Z" transform="translate(-31 -4.44)" style="fill:#231f20"/><path d="M89.24,19.26a.09.09,0,0,1,.09.07.31.31,0,0,1,0,.19,1.69,1.69,0,0,1-.31.76c-.12-.29-.23-.61-.34-1a2.25,2.25,0,0,0,.41-.36.68.68,0,0,0,.13-.4.58.58,0,0,0-.09-.4.36.36,0,0,0-.29-.17.44.44,0,0,0-.35.14.75.75,0,0,0-.22.58V19c0,.1,0,.22.08.38a1.63,1.63,0,0,0-.5.54,1.05,1.05,0,0,0-.14.53.74.74,0,0,0,.12.47.43.43,0,0,0,.37.21.58.58,0,0,0,.31-.08,2,2,0,0,0,.34-.33,2.21,2.21,0,0,0,.24.36.37.37,0,0,0,.24.11.31.31,0,0,0,.28-.13.94.94,0,0,0,.21-.45l0-.06a.54.54,0,0,1-.12.24.27.27,0,0,1-.18.07.34.34,0,0,1-.2-.11,1.72,1.72,0,0,1-.21-.34,4.67,4.67,0,0,0,.34-.63,1.51,1.51,0,0,1,.23-.4.28.28,0,0,1,.2-.08v-.08l-.63,0Zm-.66,1.56a.41.41,0,0,1-.18.05.31.31,0,0,1-.26-.19.81.81,0,0,1-.09-.42,1.07,1.07,0,0,1,.1-.4,1.23,1.23,0,0,1,.28-.33c.07.18.11.34.15.46l.24.6A2.23,2.23,0,0,1,88.58,20.82Zm0-2v-.24a.65.65,0,0,1,.08-.26.23.23,0,0,1,.21-.13c.07,0,.12.05.17.12a.37.37,0,0,1,0,.26.67.67,0,0,1-.11.37,1,1,0,0,1-.3.28C88.62,19,88.6,18.88,88.58,18.79Z" transform="translate(-31 -4.44)" style="fill:#231f20"/><path d="M93.72,18.57a.31.31,0,0,1-.09.16.09.09,0,0,1-.08,0,.21.21,0,0,1-.08-.06.82.82,0,0,0-.42-.24.85.85,0,0,0-.57.12,1.25,1.25,0,0,0-.46.52,2.57,2.57,0,0,0-.26.81,2.28,2.28,0,0,0,.07,1,.85.85,0,0,0,.66.67.67.67,0,0,0,.49-.1,1.72,1.72,0,0,0,.45-.52l0-.06a1.62,1.62,0,0,1-.41.44.49.49,0,0,1-.35.07.54.54,0,0,1-.36-.23,1,1,0,0,1-.18-.5,2.47,2.47,0,0,1,0-.71,3,3,0,0,1,.21-.81,1,1,0,0,1,.33-.44.58.58,0,0,1,.4-.09.57.57,0,0,1,.39.27,1.34,1.34,0,0,1,.15.71h0l.15-1Z" transform="translate(-31 -4.44)" style="fill:#231f20"/><path d="M95.37,21.51a2.21,2.21,0,0,1,0,.32l-.07.11a.23.23,0,0,1-.17,0l0,.08.75.2,0-.08a.2.2,0,0,1-.15-.14,1.29,1.29,0,0,1,0-.43c0-.86,0-1.73-.08-2.61l-.06,0c-.44.75-.85,1.51-1.26,2.27a1.76,1.76,0,0,1-.25.4.25.25,0,0,1-.17.05l0,.08.6.13,0-.08c-.09,0-.15-.06-.16-.11a.13.13,0,0,1,0-.12.63.63,0,0,1,.11-.25l.23-.44.76.18Zm-.69-.79.63-1.11,0,1.27Z" transform="translate(-31 -4.44)" style="fill:#231f20"/><path d="M98.2,22.87a.45.45,0,0,1-.21-.2,1.52,1.52,0,0,1-.1-.46l-.13-.95a.64.64,0,0,0,.45-.17.8.8,0,0,0,.27-.41.93.93,0,0,0,0-.46.59.59,0,0,0-.18-.33,1.59,1.59,0,0,0-.45-.21l-.75-.23,0,.08.08,0a.21.21,0,0,1,.15.15,1.12,1.12,0,0,1-.06.36l-.55,1.86a1.09,1.09,0,0,1-.13.31.17.17,0,0,1-.2.07l-.07,0,0,.07.8.25,0-.08-.07,0a.16.16,0,0,1-.13-.14A1,1,0,0,1,97,22l.26-.84h0l0,0,.12,0,.22,1.54.49.18Zm-.54-3a.61.61,0,0,1,.25,0,.4.4,0,0,1,.26.26.81.81,0,0,1,0,.48.84.84,0,0,1-.28.41.57.57,0,0,1-.48,0h0l0,0Z" transform="translate(-31 -4.44)" style="fill:#231f20"/><path d="M100.65,20.84a.36.36,0,0,1,.19.11.25.25,0,0,1,.06.16,1.45,1.45,0,0,1-.06.33l.06,0,.24-.63c-.5-.2-1-.41-1.52-.58l0,.07.07,0c.08,0,.13.07.14.15a.62.62,0,0,1-.09.35L99,22.69a2.06,2.06,0,0,1-.12.27.19.19,0,0,1-.1.08.17.17,0,0,1-.14,0l-.07,0,0,.07c.47.17.94.36,1.4.55l.45-.64-.06,0a2.17,2.17,0,0,1-.33.31.32.32,0,0,1-.18.07.42.42,0,0,1-.24-.06l-.31-.12a.23.23,0,0,1-.09-.06V23a1.45,1.45,0,0,1,.07-.23l.35-.93.41.17a.29.29,0,0,1,.16.11.24.24,0,0,1,0,.15s0,.13-.07.27l0,0,.4-1-.06,0a.7.7,0,0,1-.21.3.28.28,0,0,1-.25,0l-.41-.16.42-1.11Z" transform="translate(-31 -4.44)" style="fill:#231f20"/><path d="M103.07,24.43a1.38,1.38,0,0,1-.09.3.18.18,0,0,1-.09.1.27.27,0,0,1-.17,0l0,.07c.23.12.47.22.69.36l0-.07a.35.35,0,0,1-.12-.19,1.76,1.76,0,0,1,.06-.41c.19-.85.36-1.7.51-2.56l0,0c-.6.63-1.18,1.26-1.74,1.91a2.35,2.35,0,0,1-.34.33.26.26,0,0,1-.18,0l0,.08.56.26,0-.07c-.08-.05-.13-.1-.14-.15a.15.15,0,0,1,0-.13.84.84,0,0,1,.15-.21l.33-.37.69.35Zm-.48-.92.86-.94-.25,1.25Z" transform="translate(-31 -4.44)" style="fill:#231f20"/><path d="M106.91,23.71l-.1.12s0,0-.06,0,0,0-.08-.1a1.54,1.54,0,0,0-.17-.24l-.16-.13a.8.8,0,0,0-.58-.11,1.59,1.59,0,0,0-.7.37,2.23,2.23,0,0,0-.49.61,2.07,2.07,0,0,0-.28.95,1,1,0,0,0,.46.92,1.22,1.22,0,0,0,.34.14,2.53,2.53,0,0,0,.39,0l.48-.79a1.25,1.25,0,0,1,.21-.27.17.17,0,0,1,.2,0l0,0,0-.07-.68-.41,0,.07a.31.31,0,0,1,.13.12.28.28,0,0,1,0,.13,1,1,0,0,1-.14.28l-.45.73a.89.89,0,0,1-.23,0,.48.48,0,0,1-.2-.07.55.55,0,0,1-.23-.33,1.2,1.2,0,0,1,0-.59,2.64,2.64,0,0,1,.29-.74,2.15,2.15,0,0,1,.6-.71.63.63,0,0,1,.75-.09.57.57,0,0,1,.28.47,1.53,1.53,0,0,1-.11.57l.06,0,.46-.84Z" transform="translate(-31 -4.44)" style="fill:#231f20"/><path d="M107.64,27.83a.53.53,0,0,1-.13-.26,1.46,1.46,0,0,1,0-.47l.15-.94a.75.75,0,0,0,.47,0,.89.89,0,0,0,.38-.32.86.86,0,0,0,.17-.43.62.62,0,0,0-.07-.37,1.4,1.4,0,0,0-.37-.33l-.64-.43,0,.07.07,0a.24.24,0,0,1,.1.19,1.09,1.09,0,0,1-.17.32l-1.07,1.63a.72.72,0,0,1-.21.25.15.15,0,0,1-.21,0l-.06,0-.05.06.7.48,0-.07-.06-.05a.2.2,0,0,1-.09-.17,1,1,0,0,1,.18-.32l.48-.73,0,0,0,0,.11.06-.24,1.54.42.31Zm.37-3.06a.46.46,0,0,1,.23.09.34.34,0,0,1,.17.32.75.75,0,0,1-.16.45.76.76,0,0,1-.39.31.51.51,0,0,1-.47-.09l0,0,0,0Z" transform="translate(-31 -4.44)" style="fill:#231f20"/><path d="M109.88,26.22a1.93,1.93,0,0,0-1,.74,2.08,2.08,0,0,0-.46,1.09.75.75,0,0,0,1.09.84,2.28,2.28,0,0,0,.95-.71,1.94,1.94,0,0,0,.47-1.05.86.86,0,0,0-.28-.79A.85.85,0,0,0,109.88,26.22Zm.86.76a3.25,3.25,0,0,1-1.36,1.74.52.52,0,0,1-.57,0,.46.46,0,0,1-.13-.5,2.39,2.39,0,0,1,.51-1,2.22,2.22,0,0,1,.83-.75.51.51,0,0,1,.55,0A.52.52,0,0,1,110.74,27Z" transform="translate(-31 -4.44)" style="fill:#231f20"/><path d="M64.56,58.12V56.41h.71V46.68h-.71V45h3a2.37,2.37,0,0,1,1.93.67,3.62,3.62,0,0,1,.56,2.29v.87a3.58,3.58,0,0,1-.33,1.76,1.63,1.63,0,0,1-1.12.73,1.68,1.68,0,0,1,1.12.62,2.45,2.45,0,0,1,.33,1.43v3.06h.7v1.71H68.65V53.45a1.83,1.83,0,0,0-.23-1.09,1.1,1.1,0,0,0-.9-.29h-.76v4.34h.67v1.71Zm2.2-7.68h.85a.94.94,0,0,0,.79-.32,1.79,1.79,0,0,0,.25-1V47.94a1.59,1.59,0,0,0-.24-1,1.19,1.19,0,0,0-.91-.28h-.74Z" transform="translate(-31 -4.44)" style="fill:#d1232a"/><path d="M73.23,56.69a2.2,2.2,0,0,1-.3,1.12.84.84,0,0,1-.72.38.81.81,0,0,1-.77-.48,3,3,0,0,1-.26-1.42v-.83A3.27,3.27,0,0,1,71.46,54a.8.8,0,0,1,.73-.53A.83.83,0,0,1,73,54a3,3,0,0,1,.28,1.45v.63H71.87v.29a2.25,2.25,0,0,0,.09.75.31.31,0,0,0,.29.24.25.25,0,0,0,.24-.16,1,1,0,0,0,.12-.48Zm-1.36-1.34h.73V55.1a1.57,1.57,0,0,0-.1-.59c-.06-.14-.15-.21-.25-.21a.3.3,0,0,0-.29.22,2,2,0,0,0-.09.71Z" transform="translate(-31 -4.44)" style="fill:#d1232a"/><path d="M75.94,54.09a1.46,1.46,0,0,1,.35-.46.62.62,0,0,1,.4-.15.53.53,0,0,1,.51.32,2.18,2.18,0,0,1,.17,1v2.45h.26v.85H76.45v-.85h.26V55.08a1.37,1.37,0,0,0-.07-.53.21.21,0,0,0-.21-.16.36.36,0,0,0-.28.15.79.79,0,0,0-.16.37v2.36h.28v.85H75.08v-.85h.25V55.08a1.66,1.66,0,0,0-.06-.53.23.23,0,0,0-.22-.16.36.36,0,0,0-.28.15.78.78,0,0,0-.15.37v2.36h.25v.85H73.7v-.85H74V54.4H73.7v-.84h.85v.6a1.69,1.69,0,0,1,.38-.51.61.61,0,0,1,.43-.17.46.46,0,0,1,.36.16A1,1,0,0,1,75.94,54.09Z" transform="translate(-31 -4.44)" style="fill:#d1232a"/><path d="M80.12,56.69a2.31,2.31,0,0,1-.3,1.12.82.82,0,0,1-.72.38.81.81,0,0,1-.77-.48,3,3,0,0,1-.26-1.42v-.83A3.14,3.14,0,0,1,78.34,54a.81.81,0,0,1,.73-.53.85.85,0,0,1,.78.5,3.12,3.12,0,0,1,.27,1.45v.63H78.76v.29a2.25,2.25,0,0,0,.09.75c.06.16.15.24.29.24a.28.28,0,0,0,.25-.16,1.26,1.26,0,0,0,.11-.48Zm-1.36-1.34h.72V55.1a1.59,1.59,0,0,0-.09-.59c-.06-.14-.15-.21-.25-.21a.29.29,0,0,0-.29.22,2,2,0,0,0-.09.71Z" transform="translate(-31 -4.44)" style="fill:#d1232a"/><path d="M82.1,57.57a1.54,1.54,0,0,1-.32.48.65.65,0,0,1-.4.14.61.61,0,0,1-.56-.4,2.78,2.78,0,0,1-.2-1.16V55a2.62,2.62,0,0,1,.2-1.14.6.6,0,0,1,.56-.41.55.55,0,0,1,.36.13A1.24,1.24,0,0,1,82,54V51.86h-.25V51h.93v6.25H83v.85H82.1Zm-.8-1.1a1.59,1.59,0,0,0,.08.63.28.28,0,0,0,.26.19.31.31,0,0,0,.29-.23,1.74,1.74,0,0,0,.1-.68V55.15a1.49,1.49,0,0,0-.09-.59.32.32,0,0,0-.3-.2.29.29,0,0,0-.26.18,1.28,1.28,0,0,0-.08.54Z" transform="translate(-31 -4.44)" style="fill:#d1232a"/><path d="M83.37,58.12v-.85h.25V54.4h-.25v-.84h.94v3.71h.26v.85Zm.13-5.37V51.64h.81v1.11Z" transform="translate(-31 -4.44)" style="fill:#d1232a"/><path d="M87,56.69a2.31,2.31,0,0,1-.29,1.12.85.85,0,0,1-.73.38.81.81,0,0,1-.77-.48A3.14,3.14,0,0,1,85,56.29v-.83A3.14,3.14,0,0,1,85.24,54a.81.81,0,0,1,.73-.53.85.85,0,0,1,.78.5A3.25,3.25,0,0,1,87,55.42v.63H85.65v.29a2.56,2.56,0,0,0,.09.75c.07.16.16.24.29.24a.26.26,0,0,0,.25-.16,1.23,1.23,0,0,0,.12-.48Zm-1.36-1.34h.73V55.1a1.57,1.57,0,0,0-.1-.59A.27.27,0,0,0,86,54.3a.3.3,0,0,0-.29.22,2,2,0,0,0-.09.71Z" transform="translate(-31 -4.44)" style="fill:#d1232a"/><path d="M87.47,58.12V56.54H88a2,2,0,0,0,.16.62.34.34,0,0,0,.31.22.24.24,0,0,0,.2-.11A.5.5,0,0,0,88.7,57a.6.6,0,0,0,0-.26,1.54,1.54,0,0,0-.18-.28l-.61-.71a1.16,1.16,0,0,1-.26-.49,1.71,1.71,0,0,1-.09-.6,1.61,1.61,0,0,1,.19-.84.59.59,0,0,1,.51-.33.54.54,0,0,1,.3.1,1.29,1.29,0,0,1,.27.32v-.33h.47v1.36h-.49a1.57,1.57,0,0,0-.15-.5.32.32,0,0,0-.25-.16.21.21,0,0,0-.17.1.42.42,0,0,0-.07.26.46.46,0,0,0,0,.2,1.1,1.1,0,0,0,.16.24l.54.65a1.92,1.92,0,0,1,.34.58,1.65,1.65,0,0,1,.11.68,1.74,1.74,0,0,1-.2.88.61.61,0,0,1-.54.34.52.52,0,0,1-.33-.11,1,1,0,0,1-.29-.34v.38Z" transform="translate(-31 -4.44)" style="fill:#d1232a"/><path d="M93.39,52.88l1.2,2.36a5.15,5.15,0,0,0,.19-.75,5.1,5.1,0,0,0,.11-.74h-.43V52.61h1.59v1.14h-.38a8.65,8.65,0,0,1-.2,1.33,6.86,6.86,0,0,1-.34,1.14l.34.66h.58v1.24H94.93l-.43-.81a2.27,2.27,0,0,1-.67.75,1.46,1.46,0,0,1-.81.25,1.51,1.51,0,0,1-1.3-.77,3.53,3.53,0,0,1-.5-2,4.15,4.15,0,0,1,.25-1.46,4.5,4.5,0,0,1,.78-1.32,4.54,4.54,0,0,1-.42-1.07,4.05,4.05,0,0,1-.15-1,2.73,2.73,0,0,1,.37-1.48,1.1,1.1,0,0,1,1-.57,1.14,1.14,0,0,1,1,.5,2.31,2.31,0,0,1,.35,1.36,3.32,3.32,0,0,1-.22,1.23A3.74,3.74,0,0,1,93.39,52.88Zm-.68.88a2.55,2.55,0,0,0-.42.75,2.64,2.64,0,0,0-.14.84,2.11,2.11,0,0,0,.31,1.14.88.88,0,0,0,.74.48.78.78,0,0,0,.44-.15,2,2,0,0,0,.4-.45ZM92.92,52a3.74,3.74,0,0,0,.44-.75,2.14,2.14,0,0,0,.14-.73.79.79,0,0,0-.14-.53.38.38,0,0,0-.34-.21.44.44,0,0,0-.38.23,1.39,1.39,0,0,0-.14.62,2.06,2.06,0,0,0,.1.63A4.35,4.35,0,0,0,92.92,52Z" transform="translate(-31 -4.44)" style="fill:#d1232a"/><path d="M104.21,53.78v.55a5.75,5.75,0,0,1-.64,3,2,2,0,0,1-1.81,1,2,2,0,0,1-1.83-1.07,6.42,6.42,0,0,1-.62-3.17V49.33a8.42,8.42,0,0,1,.54-3.43,1.76,1.76,0,0,1,1.65-1.15,1.52,1.52,0,0,1,.84.23,1.89,1.89,0,0,1,.64.72V45h1.08v3.95H102.9V48.6a3.79,3.79,0,0,0-.3-1.51.75.75,0,0,0-.7-.5.85.85,0,0,0-.81.5,3.67,3.67,0,0,0-.26,1.58v5.8a3.72,3.72,0,0,0,.25,1.56.89.89,0,0,0,1.61,0,3.49,3.49,0,0,0,.27-1.56v-.66Z" transform="translate(-31 -4.44)" style="fill:#d1232a"/><path d="M106.19,57.59a1.65,1.65,0,0,1-.32.46.54.54,0,0,1-.37.14.59.59,0,0,1-.56-.46,3.32,3.32,0,0,1-.2-1.33V55.06A2.61,2.61,0,0,1,105,53.9a.67.67,0,0,1,.59-.42.59.59,0,0,1,.4.15,1.47,1.47,0,0,1,.29.48v-.55h.85v.84h-.26v2.87h.26v.85h-.89Zm-.76-1.08a1.84,1.84,0,0,0,.07.61.27.27,0,0,0,.24.19c.13,0,.22-.08.29-.24a1.67,1.67,0,0,0,.11-.66V55.2a1.49,1.49,0,0,0-.1-.64.3.3,0,0,0-.27-.2.24.24,0,0,0-.25.2,1.42,1.42,0,0,0-.09.62Z" transform="translate(-31 -4.44)" style="fill:#d1232a"/><path d="M109.26,53.47h.19v1.18l-.18,0-.17,0a.53.53,0,0,0-.48.31,2.11,2.11,0,0,0-.15.94v1.43h.33v.85h-1.31v-.85h.28V54.4h-.27v-.84h.92v.82a1.61,1.61,0,0,1,.36-.68A.62.62,0,0,1,109.26,53.47Z" transform="translate(-31 -4.44)" style="fill:#d1232a"/><path d="M111.8,56.69a2.2,2.2,0,0,1-.3,1.12.85.85,0,0,1-.72.38.82.82,0,0,1-.77-.48,3,3,0,0,1-.25-1.42v-.83A3.29,3.29,0,0,1,110,54a.81.81,0,0,1,.74-.53.86.86,0,0,1,.78.5,3.27,3.27,0,0,1,.26,1.45v.63h-1.36v.29a2.25,2.25,0,0,0,.09.75.31.31,0,0,0,.29.24.27.27,0,0,0,.25-.16,1.09,1.09,0,0,0,.11-.48Zm-1.36-1.34h.73V55.1a1.57,1.57,0,0,0-.1-.59c-.06-.14-.14-.21-.25-.21a.3.3,0,0,0-.29.22,2,2,0,0,0-.09.71Z" transform="translate(-31 -4.44)" style="fill:#d1232a"/><path d="M113.58,58.12V56.41h.55l1.69-9.73h-.75V45h3.61v1.7h-.74l1.66,9.73h.51v1.71h-2.72V56.41h.77l-.34-2.19h-2.06l-.35,2.19h.73v1.71ZM116,52.75h1.6l-.77-5.35Z" transform="translate(-31 -4.44)" style="fill:#803136"/><path d="M122.69,58a3.76,3.76,0,0,1-.28,1.66.9.9,0,0,1-.85.53,1.25,1.25,0,0,1-.45-.08,1.05,1.05,0,0,1-.37-.25v-.93a1.14,1.14,0,0,0,.33.3.86.86,0,0,0,.38.1.44.44,0,0,0,.43-.27,2.07,2.07,0,0,0,.13-.88v-.52a1.38,1.38,0,0,1-.27.41.6.6,0,0,1-.36.12.61.61,0,0,1-.57-.4,2.59,2.59,0,0,1-.2-1.17V55a2.65,2.65,0,0,1,.2-1.14.64.64,0,0,1,.57-.41.54.54,0,0,1,.38.16,1.52,1.52,0,0,1,.34.48v-.56H123v.84h-.26Zm-1.41-1.53a1.8,1.8,0,0,0,.09.62.27.27,0,0,0,.25.2.33.33,0,0,0,.3-.23,1.92,1.92,0,0,0,.09-.67V55.23a1.6,1.6,0,0,0-.1-.66.31.31,0,0,0-.3-.21.25.25,0,0,0-.24.18,1.49,1.49,0,0,0-.09.55Z" transform="translate(-31 -4.44)" style="fill:#803136"/><path d="M125.1,53.47h.18v1.18l-.17,0-.17,0a.53.53,0,0,0-.48.31,2.09,2.09,0,0,0-.16.94v1.43h.34v.85h-1.32v-.85h.29V54.4h-.26v-.84h.9v.82a1.87,1.87,0,0,1,.37-.68A.62.62,0,0,1,125.1,53.47Z" transform="translate(-31 -4.44)" style="fill:#803136"/><path d="M125.59,56.4V55.27a2.79,2.79,0,0,1,.26-1.34.87.87,0,0,1,.78-.46.84.84,0,0,1,.77.46,2.58,2.58,0,0,1,.27,1.34V56.4a2.54,2.54,0,0,1-.27,1.33.81.81,0,0,1-.77.46.84.84,0,0,1-.78-.45A2.79,2.79,0,0,1,125.59,56.4Zm.69,0a2.09,2.09,0,0,0,.08.7c.06.16.15.23.27.23s.21-.07.27-.23a2,2,0,0,0,.09-.7V55.27a2,2,0,0,0-.09-.7q-.09-.24-.27-.24c-.12,0-.21.08-.27.23a2.15,2.15,0,0,0-.08.71Z" transform="translate(-31 -4.44)" style="fill:#803136"/><path d="M128.18,57.57a.7.7,0,0,1,.12-.43.31.31,0,0,1,.57,0,.73.73,0,0,1,.13.43.79.79,0,0,1-.13.44.34.34,0,0,1-.29.18.31.31,0,0,1-.27-.18A.66.66,0,0,1,128.18,57.57Z" transform="translate(-31 -4.44)" style="fill:#803136"/><rect x="33.09" y="53.91" width="47.23" height="0.77" style="fill:#7d3236"/></svg>